<?xml version="1.0" encoding="utf-8"?>
<!-- Generator: Adobe Illustrator 21.0.2, SVG Export Plug-In . SVG Version: 6.00 Build 0)  -->
<svg version="1.1" id="Capa_1" xmlns="http://www.w3.org/2000/svg" xmlns:xlink="http://www.w3.org/1999/xlink" x="0px" y="0px" viewBox="0 0 512 464" style="enable-background:new 0 0 512 464;" xml:space="preserve" width="58px" height="54px">
    <g id="SVGCleanerId_0">
        <g>
            <path style="fill:#FF6C5E;" d="M208,304h-48c-4.4,0-8,3.6-8,8s3.6,8,8,8h48c4.4,0,8-3.6,8-8S212.4,304,208,304z" />
        </g>
    </g>
    <g>
        <g>
            <path style="fill:#FF6C5E;" d="M504,304h-56c-4.4,0-8,3.6-8,8s3.6,8,8,8h56c4.4,0,8-3.6,8-8S508.4,304,504,304z" />
        </g>
    </g>
    <g id="SVGCleanerId_1">
        <g>
            <path style="fill:#FF6C5E;" d="M352,304h-48c-4.4,0-8,3.6-8,8s3.6,8,8,8h48c4.4,0,8-3.6,8-8S356.4,304,352,304z" />
        </g>
    </g>
    <g>
        <g>
            <path style="fill:#FF6C5E;" d="M64,304H8c-4.4,0-8,3.6-8,8s3.6,8,8,8h56c4.4,0,8-3.6,8-8S68.4,304,64,304z" />
        </g>
    </g>
    <g>
        <g>
            <path style="fill:#FF6C5E;" d="M208,304h-48c-4.4,0-8,3.6-8,8s3.6,8,8,8h48c4.4,0,8-3.6,8-8S212.4,304,208,304z" />
        </g>
    </g>
    <g>
        <g>
            <path style="fill:#FF6C5E;" d="M480,0H32c-4.4,0-8,3.6-8,8v304c0,4.4,3.6,8,8,8h32c4.4,0,8-3.6,8-8s-3.6-8-8-8H40V16h432v288h-24
			c-4.4,0-8,3.6-8,8s3.6,8,8,8h32c4.4,0,8-3.6,8-8V8C488,3.6,484.4,0,480,0z" />
        </g>
    </g>
    <g>
        <g>
            <path style="fill:#FF6C5E;" d="M352,304h-48c-4.4,0-8,3.6-8,8s3.6,8,8,8h48c4.4,0,8-3.6,8-8S356.4,304,352,304z" />
        </g>
    </g>
    <g>
        <g>
            <g>
                <path style="fill:#FF6C5E;" d="M141.8,359.4c15.7-9.9,26.2-27.4,26.2-47.4c0-30.9-25.1-56-56-56s-56,25.1-56,56
				c0,19.9,10.5,37.5,26.2,47.4C61.9,370.1,48,391.5,48,416v40c0,4.4,3.6,8,8,8h112c4.4,0,8-3.6,8-8v-40
				C176,391.5,162.1,370.1,141.8,359.4z M72,312c0-22.1,17.9-40,40-40s40,17.9,40,40s-17.9,40-40,40S72,334.1,72,312z M160,448H64
				v-32c0-26.5,21.5-48,48-48s48,21.5,48,48V448z" />
                <path style="fill:#FF6C5E;" d="M285.8,359.4c15.7-9.9,26.2-27.4,26.2-47.4c0-30.9-25.1-56-56-56s-56,25.1-56,56
				c0,19.9,10.5,37.5,26.2,47.4C205.9,370.1,192,391.5,192,416v40c0,4.4,3.6,8,8,8h112c4.4,0,8-3.6,8-8v-40
				C320,391.5,306.1,370.1,285.8,359.4z M216,312c0-22.1,17.9-40,40-40s40,17.9,40,40s-17.9,40-40,40S216,334.1,216,312z M304,448
				h-96v-32c0-26.5,21.5-48,48-48s48,21.5,48,48V448z" />
                <path style="fill:#FF6C5E;" d="M429.8,359.4c15.7-9.9,26.2-27.4,26.2-47.4c0-30.9-25.1-56-56-56s-56,25.1-56,56
				c0,19.9,10.5,37.5,26.2,47.4C349.9,370.1,336,391.5,336,416v40c0,4.4,3.6,8,8,8h112c4.4,0,8-3.6,8-8v-40
				C464,391.5,450.1,370.1,429.8,359.4z M360,312c0-22.1,17.9-40,40-40s40,17.9,40,40s-17.9,40-40,40S360,334.1,360,312z M448,448
				h-96v-32c0-26.5,21.5-48,48-48s48,21.5,48,48V448z" />
                <path style="fill:#FF6C5E;" d="M64,208c0,13.2,10.8,24,24,24s24-10.8,24-24c0-3.7-0.8-7.2-2.3-10.3l60-60l94.4,44.1
				c-0.1,0.8-0.1,1.5-0.1,2.3c0,13.2,10.8,24,24,24s24-10.8,24-24c0-2.9-0.5-5.7-1.5-8.2l101.1-83.2c3.6,2.2,7.8,3.4,12.4,3.4
				c13.2,0,24-10.8,24-24s-10.8-24-24-24s-24,10.8-24,24c0,2.9,0.5,5.7,1.5,8.2l-101.1,83.2c-3.6-2.2-7.8-3.4-12.4-3.4
				c-6.7,0-12.8,2.8-17.1,7.2l-99.5-46.5c-3-1.4-6.7-0.8-9,1.6l-64,64c-3.1-1.5-6.6-2.3-10.3-2.3C74.8,184,64,194.8,64,208z M424,64
				c4.4,0,8,3.6,8,8s-3.6,8-8,8c-2.4,0-4.5-1-5.9-2.6c-0.1-0.1-0.1-0.2-0.2-0.3c-0.1-0.1-0.2-0.2-0.3-0.3c-1-1.3-1.6-3-1.6-4.8
				C416,67.6,419.6,64,424,64z M288,176c2.4,0,4.5,1,6,2.7c0.1,0.1,0.1,0.2,0.2,0.2c0.1,0.1,0.1,0.1,0.2,0.2c1,1.3,1.7,3,1.7,4.9
				c0,4.4-3.6,8-8,8s-8-3.6-8-8c0-1,0.2-2,0.6-3c0.1-0.1,0.1-0.2,0.2-0.4c0.1-0.1,0.1-0.3,0.2-0.4C282.3,177.7,285,176,288,176z
				 M88,200c2,0,3.9,0.8,5.3,2c0.1,0.1,0.2,0.2,0.3,0.3c0.1,0.1,0.2,0.2,0.3,0.3c1.3,1.4,2.1,3.3,2.1,5.3c0,4.4-3.6,8-8,8
				s-8-3.6-8-8S83.6,200,88,200z" />
                <path style="fill:#FF6C5E;" d="M64,48c2.1,0,4.2-0.9,5.7-2.3c1.4-1.5,2.3-3.6,2.3-5.7s-0.9-4.2-2.3-5.7c-3-3-8.3-3-11.4,0
				C56.9,35.8,56,37.9,56,40s0.9,4.2,2.3,5.7C59.8,47.1,61.9,48,64,48z" />
                <path style="fill:#FF6C5E;" d="M96,48c2.2,0,4.2-0.9,5.7-2.3c1.4-1.5,2.3-3.6,2.3-5.7c0-2.2-0.9-4.2-2.3-5.7c-3-3-8.3-3-11.4,0
				C88.9,35.8,88,37.9,88,40s0.9,4.2,2.3,5.7C91.8,47.1,93.9,48,96,48z" />
                <path style="fill:#FF6C5E;" d="M128,48c2.1,0,4.2-0.9,5.7-2.3c1.4-1.5,2.3-3.6,2.3-5.7s-0.9-4.2-2.3-5.7c-3-3-8.4-3-11.4,0
				c-1.4,1.5-2.3,3.6-2.3,5.7s0.9,4.2,2.3,5.7C123.8,47.1,125.9,48,128,48z" />
                <path style="fill:#FF6C5E;" d="M160,48c2.2,0,4.2-0.9,5.7-2.3c1.4-1.5,2.3-3.6,2.3-5.7s-0.9-4.2-2.3-5.7c-3-3-8.4-3-11.4,0
				c-1.4,1.5-2.3,3.6-2.3,5.7s0.9,4.2,2.3,5.7C155.8,47.1,157.8,48,160,48z" />
                <path style="fill:#FF6C5E;" d="M192,48c2.1,0,4.2-0.9,5.7-2.3c1.4-1.5,2.3-3.6,2.3-5.7s-0.9-4.2-2.3-5.7c-3-3-8.4-3-11.4,0
				c-1.4,1.5-2.3,3.6-2.3,5.7c0,2.2,0.9,4.2,2.3,5.7C187.8,47.1,189.9,48,192,48z" />
                <path style="fill:#FF6C5E;" d="M64,80c2.2,0,4.2-0.9,5.7-2.3c1.4-1.5,2.3-3.6,2.3-5.7s-0.9-4.2-2.3-5.7c-3-3-8.4-3-11.4,0
				C56.9,67.8,56,69.9,56,72s0.9,4.2,2.3,5.7C59.8,79.1,61.9,80,64,80z" />
                <path style="fill:#FF6C5E;" d="M96,80c2.1,0,4.2-0.9,5.7-2.3c1.4-1.5,2.3-3.5,2.3-5.7c0-2.1-0.9-4.2-2.3-5.7c-3-3-8.3-3-11.4,0
				C88.8,67.8,88,69.9,88,72s0.9,4.2,2.3,5.7C91.8,79.1,93.9,80,96,80z" />
                <path style="fill:#FF6C5E;" d="M128,80c2.2,0,4.2-0.9,5.7-2.3c1.4-1.5,2.3-3.6,2.3-5.7c0-2.2-0.9-4.2-2.3-5.7c-3-3-8.4-3-11.4,0
				c-1.4,1.5-2.3,3.5-2.3,5.7s0.9,4.2,2.3,5.7C123.8,79.1,125.8,80,128,80z" />
                <path style="fill:#FF6C5E;" d="M160,80c2.1,0,4.2-0.9,5.7-2.3c1.4-1.5,2.3-3.6,2.3-5.7s-0.9-4.2-2.3-5.7c-3-3-8.4-3-11.4,0
				c-1.4,1.5-2.3,3.6-2.3,5.7s0.9,4.2,2.3,5.7C155.8,79.1,157.9,80,160,80z" />
                <path style="fill:#FF6C5E;" d="M192,80c2.1,0,4.2-0.9,5.7-2.3c1.4-1.5,2.3-3.6,2.3-5.7s-0.9-4.2-2.3-5.7c-3-3-8.4-3-11.4,0
				c-1.4,1.5-2.3,3.6-2.3,5.7c0,2.2,0.9,4.2,2.3,5.7C187.8,79.1,189.9,80,192,80z" />
                <path style="fill:#FF6C5E;" d="M64,112c2.1,0,4.2-0.9,5.7-2.3c1.4-1.5,2.3-3.6,2.3-5.7s-0.9-4.2-2.3-5.7c-3-3-8.3-3-11.4,0
				c-1.5,1.5-2.3,3.6-2.3,5.7s0.9,4.2,2.3,5.7C59.8,111.1,61.9,112,64,112z" />
                <path style="fill:#FF6C5E;" d="M96,112c2.2,0,4.2-0.9,5.7-2.3c1.4-1.5,2.3-3.6,2.3-5.7c0-2.2-0.9-4.2-2.3-5.7c-3-3-8.3-3-11.4,0
				c-1.4,1.5-2.3,3.6-2.3,5.7c0,2.1,0.9,4.2,2.3,5.7C91.8,111.1,93.9,112,96,112z" />
                <path style="fill:#FF6C5E;" d="M128,112c2.1,0,4.2-0.9,5.7-2.3c1.4-1.5,2.3-3.5,2.3-5.7c0-2.1-0.9-4.2-2.3-5.7c-3-3-8.5-3-11.4,0
				c-1.4,1.5-2.3,3.5-2.3,5.7c0,2.2,0.9,4.2,2.3,5.7C123.8,111.1,125.8,112,128,112z" />
                <path style="fill:#FF6C5E;" d="M64,144c2.2,0,4.2-0.9,5.7-2.3c1.4-1.5,2.3-3.6,2.3-5.7s-0.9-4.2-2.3-5.7c-3-3-8.3-3-11.4,0
				c-1.4,1.5-2.3,3.6-2.3,5.7s0.9,4.2,2.3,5.7C59.8,143.1,61.9,144,64,144z" />
                <path style="fill:#FF6C5E;" d="M96,144c2.1,0,4.2-0.9,5.7-2.3c1.4-1.5,2.3-3.5,2.3-5.7c0-2.1-0.9-4.2-2.3-5.7c-3-3-8.3-3-11.4,0
				c-1.4,1.5-2.3,3.6-2.3,5.7s0.9,4.2,2.3,5.7C91.8,143.1,93.9,144,96,144z" />
            </g>
        </g>
    </g>
</svg>