<?xml version="1.0" encoding="utf-8"?>
<!-- Generator: Adobe Illustrator 21.0.2, SVG Export Plug-In . SVG Version: 6.00 Build 0)  -->
<svg version="1.1" id="Layer_1" xmlns="http://www.w3.org/2000/svg" xmlns:xlink="http://www.w3.org/1999/xlink" x="0px" y="0px" viewBox="0 0 512 512" style="enable-background:new 0 0 512 512;" xml:space="preserve" width="65px" height="65px">
    <g>
        <g id="XMLID_1_">
            <g>
                <path style="fill:#E75F5C;" d="M445.9,90.8c4.5,0,8.3,3.7,8.3,8.3c0,4.6-3.7,8.3-8.3,8.3c-4.6,0-8.3-3.7-8.3-8.3
				C437.7,94.5,441.4,90.8,445.9,90.8z" />
                <path style="fill:#E75F5C;" d="M404.6,189.9c4.6,0,8.3,3.7,8.3,8.3c0,4.6-3.7,8.3-8.3,8.3c-4.6,0-8.3-3.7-8.3-8.3
				C396.4,193.6,400.1,189.9,404.6,189.9z" />
                <path style="fill:#E75F5C;" d="M107.3,115.6c4.6,0,8.3,3.7,8.3,8.3c0,4.6-3.7,8.3-8.3,8.3c-4.5,0-8.3-3.7-8.3-8.3
				C99.1,119.3,102.8,115.6,107.3,115.6z" />
                <path style="fill:#E75F5C;" d="M66.1,173.4c4.6,0,8.3,3.7,8.3,8.3c0,4.6-3.7,8.3-8.3,8.3c-4.5,0-8.2-3.7-8.2-8.3
				C57.8,177.1,61.5,173.4,66.1,173.4z" />
                <path style="fill:#2F0A35;" d="M512,470.7V512H396.4v-41.3c0-21.5,11.9-40.4,29.4-50.3c-12.8-9-21.1-23.8-21.1-40.6
				c0-27.3,22.2-49.5,49.5-49.5c27.3,0,49.5,22.2,49.5,49.5c0,16.8-8.4,31.6-21.2,40.6C500.1,430.4,512,449.2,512,470.7z
				 M495.5,495.5v-24.8c0-22.8-18.5-41.3-41.3-41.3c-22.8,0-41.3,18.5-41.3,41.3v24.8H495.5z M487.2,379.9c0-18.2-14.8-33-33-33
				c-18.2,0-33,14.8-33,33s14.8,33,33,33C472.4,412.9,487.2,398.1,487.2,379.9z" />
                <path style="fill:#2F0A35;" d="M512,140.4c0,56.3-33.4,104.9-81.4,127.2c18.6,7.2,31.8,25.1,31.8,46.2h-16.5
				c0-18.2-14.8-33-33-33h-33v-0.4c-2.8,0.2-5.5,0.4-8.3,0.4h-41.3v33h-16.5v-33H198.2v33h-16.5v-33h-41.3c-2.8,0-5.5-0.3-8.3-0.4
				v0.4h-33c-18.2,0-33,14.8-33,33H49.5c0-21.1,13.2-39.1,31.8-46.2C33.4,245.3,0,196.7,0,140.4C0,63,63,0,140.4,0h231.2
				C449,0,512,63,512,140.4z M495.5,140.4c0-68.3-55.6-123.9-123.9-123.9H140.4c-68.3,0-123.9,55.6-123.9,123.9
				c0,68.3,55.6,123.9,123.9,123.9h231.2C439.9,264.3,495.5,208.7,495.5,140.4z" />
                <path style="fill:#E75F5C;" d="M445.9,74.3c13.6,0,24.8,11.1,24.8,24.8s-11.1,24.8-24.8,24.8c-0.8,0-1.6-0.2-2.5-0.3l-21.4,57
				c4.5,4.5,7.3,10.7,7.3,17.5c0,13.7-11.1,24.8-24.8,24.8c-13.7,0-24.8-11.1-24.8-24.8c0-0.5,0.1-1.1,0.2-1.6l-16.7-3.6v54.8H148.6
				V146l-23.4-5.1c-4.5,4.8-10.8,7.8-17.9,7.8c-3.2,0-6.2-0.7-9-1.8l-13.8,18.4c3.9,4.4,6.3,10.1,6.3,16.4
				c0,13.7-11.1,24.8-24.8,24.8c-13.6,0-24.8-11.1-24.8-24.8c0-13.7,11.1-24.8,24.8-24.8c1.3,0,2.6,0.2,3.8,0.4l16-21.3
				c-2-3.6-3.3-7.7-3.3-12.1c0-13.7,11.1-24.8,24.8-24.8c13.7,0,24.8,11.1,24.8,24.8c0,0.5-0.1,1-0.2,1.6l16.7,3.7V33h214.7v143
				l23.4,5.1c4.5-4.8,10.8-7.8,17.9-7.8c0.8,0,1.6,0.2,2.4,0.3l21.4-57c-4.5-4.5-7.3-10.7-7.3-17.6
				C421.2,85.4,432.3,74.3,445.9,74.3z M454.2,99.1c0-4.6-3.7-8.3-8.3-8.3c-4.6,0-8.3,3.7-8.3,8.3c0,4.6,3.7,8.3,8.3,8.3
				C450.5,107.3,454.2,103.7,454.2,99.1z M412.9,198.2c0-4.6-3.7-8.3-8.3-8.3c-4.6,0-8.3,3.7-8.3,8.3c0,4.6,3.7,8.3,8.3,8.3
				C409.2,206.4,412.9,202.8,412.9,198.2z M346.8,231.2V49.5H165.2v181.7H346.8z M115.6,123.9c0-4.6-3.7-8.3-8.3-8.3
				c-4.5,0-8.3,3.7-8.3,8.3c0,4.6,3.7,8.3,8.3,8.3C111.9,132.1,115.6,128.4,115.6,123.9z M74.3,181.7c0-4.6-3.7-8.3-8.3-8.3
				c-4.5,0-8.2,3.7-8.2,8.3c0,4.6,3.7,8.3,8.2,8.3C70.6,189.9,74.3,186.2,74.3,181.7z" />
                <path style="fill:#2F0A35;" d="M379.9,470.7V512H264.3v-41.3c0-21.5,11.9-40.4,29.4-50.3c-12.8-9-21.2-23.8-21.2-40.6
				c0-27.3,22.2-49.5,49.5-49.5c27.3,0,49.5,22.2,49.5,49.5c0,16.8-8.4,31.6-21.1,40.6C368,430.4,379.9,449.2,379.9,470.7z
				 M363.4,495.5v-24.8c0-22.8-18.5-41.3-41.3-41.3c-22.8,0-41.3,18.5-41.3,41.3v24.8H363.4z M355.1,379.9c0-18.2-14.8-33-33-33
				c-18.2,0-33,14.8-33,33s14.8,33,33,33C340.3,412.9,355.1,398.1,355.1,379.9z" />
                <rect x="313.8" y="198.2" style="fill:#E75F5C;" width="16.5" height="16.5" />
                <rect x="181.7" y="165.2" style="fill:#E75F5C;" width="148.6" height="16.5" />
                <rect x="181.7" y="132.1" style="fill:#E75F5C;" width="148.6" height="16.5" />
                <rect x="181.7" y="99.1" style="fill:#E75F5C;" width="148.6" height="16.5" />
                <rect x="181.7" y="66.1" style="fill:#E75F5C;" width="148.6" height="16.5" />
                <rect x="181.7" y="198.2" style="fill:#E75F5C;" width="115.6" height="16.5" />
                <path style="fill:#2F0A35;" d="M247.7,470.7V512H132.1v-41.3c0-21.5,11.9-40.4,29.4-50.3c-12.8-9-21.1-23.8-21.1-40.6
				c0-27.3,22.2-49.5,49.6-49.5c27.3,0,49.5,22.2,49.5,49.5c0,16.8-8.4,31.6-21.1,40.6C235.9,430.4,247.7,449.2,247.7,470.7z
				 M231.2,495.5v-24.8c0-22.8-18.5-41.3-41.3-41.3c-22.8,0-41.3,18.5-41.3,41.3v24.8H231.2z M223,379.9c0-18.2-14.8-33-33-33
				c-18.2,0-33,14.8-33,33s14.8,33,33,33C208.1,412.9,223,398.1,223,379.9z" />
                <path style="fill:#2F0A35;" d="M115.6,470.7V512H0v-41.3c0-21.5,11.9-40.4,29.4-50.3c-12.8-9-21.2-23.8-21.2-40.6
				c0-27.3,22.2-49.5,49.6-49.5c27.3,0,49.5,22.2,49.5,49.5c0,16.8-8.4,31.6-21.2,40.6C103.7,430.4,115.6,449.2,115.6,470.7z
				 M99.1,495.5v-24.8c0-22.8-18.5-41.3-41.3-41.3c-22.8,0-41.3,18.5-41.3,41.3v24.8H99.1z M90.8,379.9c0-18.2-14.8-33-33-33
				c-18.2,0-33,14.8-33,33s14.8,33,33,33C76,412.9,90.8,398.1,90.8,379.9z" />
            </g>
            <g>
            </g>
        </g>
    </g>
</svg>