<?xml version="1.0" encoding="utf-8"?>
<!-- Generator: Adobe Illustrator 21.0.2, SVG Export Plug-In . SVG Version: 6.00 Build 0)  -->
<svg version="1.1" id="Layer_1" xmlns="http://www.w3.org/2000/svg" xmlns:xlink="http://www.w3.org/1999/xlink" x="0px" y="0px" viewBox="0 0 513.6 513.6" style="enable-background:new 0 0 513.6 513.6;" xml:space="preserve" width="68px" height="67px">
    <g>
        <g id="XMLID_1_">
            <g>
                <path style="fill:#2F0A35;" d="M513.6,405.6v24.8l-10.4,4.8c-14.4,6.4-29.6,12-45.6,16c-10.4,2.4-21.6,4-32.8,4.8v56.8h-16v-56
				v-16c0-35.2-24.8-47.2-59.2-64.8h-0.8H348v-0.8l-36.8-18.4c-5.6,25.6-28,44-54.4,44c-26.4,0-48.8-19.2-54.4-44l-36.8,18.4v0.8
				h-0.8H164c-34.4,17.6-59.2,29.6-59.2,64.8v16v56h-16v-57.6c-11.2-0.8-22.4-2.4-32.8-4.8c-16-3.2-31.2-8.8-45.6-16L0,429.6v-24.8
				c0-8,2.4-15.2,6.4-21.6c4-5.6,9.6-11.2,16-14.4l46.4-23.2c0.8-0.8,3.2-4,3.2-8.8v-5.6C61.6,320,56,304,56,288.8v-16
				c0-12.8,4.8-24.8,14.4-33.6c8.8-9.6,20.8-14.4,33.6-14.4s24.8,4.8,33.6,14.4c9.6,8.8,14.4,20.8,14.4,33.6v16
				c0,16-5.6,31.2-16,42.4v5.6c0,4.8,2.4,8,3.2,8.8l24.8,12l40.8-20c0.8-0.8,3.2-3.2,3.2-8.8v-28c-14.4-13.6-22.4-34.4-24-54.4
				c-0.8-0.8-2.4-1.6-3.2-2.4c-3.2-3.2-4.8-7.2-4.8-11.2v-40c0-21.6,8-41.6,23.2-56.8s35.2-23.2,56.8-23.2s41.6,8,56.8,23.2
				c15.2,15.2,23.2,35.2,23.2,56.8v40c0,4-1.6,8-4.8,12c-0.8,0.8-1.6,1.6-3.2,2.4c-1.6,20-9.6,40-24,54.4v27.2c0,5.6,2.4,8,3.2,8.8
				l40.8,20l24.8-12c0.8-0.8,3.2-4,3.2-8.8v-5.6c-10.4-11.2-16-27.2-16-42.4v-16c0-12.8,4.8-24.8,14.4-33.6
				c8.8-9.6,20.8-14.4,33.6-14.4s24.8,4.8,33.6,14.4c9.6,8.8,14.4,20.8,14.4,33.6v16c0,16-5.6,31.2-16,42.4v5.6c0,4.8,2.4,8,3.2,8.8
				l46.4,23.2c7.2,3.2,12.8,8.8,18.4,16C511.2,391.2,513.6,398.4,513.6,405.6z M496,420v-15.2c0-4.8-0.8-8.8-3.2-12.8
				c-2.4-4-5.6-7.2-9.6-8.8L436.8,360c-4.8-2.4-10.4-9.6-12-18.4c-5.6,2.4-10.4,3.2-16.8,3.2s-12-0.8-16.8-3.2
				c-1.6,9.6-7.2,16-12,18.4l-13.6,7.2c31.2,16,58.4,33.6,58.4,73.6c9.6-0.8,19.2-2.4,28.8-4.8c14.4-3.2,28-8.8,41.6-15.2L496,420z
				 M440,288.8v-16c0-8-3.2-16-9.6-22.4c-5.6-6.4-14.4-9.6-22.4-9.6s-16,3.2-22.4,9.6c-6.4,5.6-9.6,13.6-9.6,22.4v16
				c0,16.8,9.6,40,32,40S440,305.6,440,288.8z M320,232.8v-16c0-4-1.6-8-4.8-11.2c-3.2-3.2-7.2-4.8-11.2-4.8h-8
				c-6.4,0-12-2.4-16.8-7.2c-0.8-0.8-1.6-1.6-2.4-2.4l-7.2,7.2c-1.6,1.6-3.2,2.4-5.6,2.4h-56c-4,0-8,1.6-11.2,4.8
				c-3.2,3.2-4.8,7.2-4.8,11.2v16c4.8,0,8,3.2,8,8c0,24.8,15.2,64,56,64s56-39.2,56-64C312,236,315.2,232.8,320,232.8z M320,188.8
				c-0.8-16-7.2-30.4-18.4-41.6c-12.8-12-28.8-18.4-45.6-18.4c-17.6,0-33.6,6.4-45.6,18.4c-11.2,11.2-17.6,26.4-18.4,41.6
				c4.8-2.4,10.4-4,16-4h52.8l13.6-13.6c2.4-2.4,5.6-3.2,8.8-1.6c3.2,0.8,4.8,4,4.8,7.2c0,2.4,0.8,4,2.4,5.6
				c1.6,1.6,3.2,2.4,5.6,2.4h8C309.6,184.8,315.2,186.4,320,188.8z M296,348.8c-4.8-4.8-8-12-8-20v-16c-8.8,4.8-20,8-32,8
				s-23.2-3.2-32-8v16c0,8-3.2,15.2-8,20c2.4,20,19.2,36,40,36S293.6,368.8,296,348.8z M146.4,367.2l-13.6-7.2
				c-4.8-2.4-10.4-9.6-12-18.4c-5.6,2.4-10.4,3.2-16.8,3.2s-12-0.8-16.8-3.2c-1.6,9.6-7.2,16-12,18.4l-46.4,23.2
				c-4,1.6-7.2,4.8-9.6,8.8c-1.6,4-3.2,8-3.2,12.8V420h1.6c12.8,6.4,27.2,12,41.6,15.2c8.8,2.4,19.2,4,28.8,4.8
				C88,400,115.2,382.4,146.4,367.2z M136,288.8v-16c0-8-3.2-16-9.6-22.4c-5.6-6.4-14.4-9.6-22.4-9.6s-16,3.2-22.4,9.6
				C75.2,256,72,264,72,272.8v16c0,16.8,9.6,40,32,40S136,305.6,136,288.8z" />
                <path style="fill:#E75F5C;" d="M512,72.8v128h-24v24c0,3.2-1.6,5.6-4.8,7.2c-0.8,0.8-2.4,0.8-3.2,0.8c-2.4,0-4-0.8-5.6-2.4
				l-29.6-29.6H352v-16h96c2.4,0,4,0.8,5.6,2.4l18.4,18.4v-4.8v-16h24v-96H320v24h-16v-40H512z" />
                <rect x="432" y="128.8" style="fill:#E75F5C;" width="16" height="16" />
                <rect x="400" y="128.8" style="fill:#E75F5C;" width="16" height="16" />
                <rect x="368" y="128.8" style="fill:#E75F5C;" width="16" height="16" />
                <rect x="344" y="464.8" style="fill:#2F0A35;" width="16" height="48" />
                <path style="fill:#E75F5C;" d="M256,0.8v96h-16v-80H16v144h24v16v4.8l18.4-18.4c1.6-1.6,3.2-2.4,5.6-2.4h96v16H67.2l-29.6,29.6
				c-1.6,1.6-3.2,2.4-5.6,2.4c-0.8,0-2.4,0-3.2-0.8c-3.2-0.8-4.8-4-4.8-7.2v-24H0V0.8H256z" />
                <rect x="48" y="80.8" style="fill:#E75F5C;" width="160" height="16" />
                <rect x="48" y="48.8" style="fill:#E75F5C;" width="160" height="16" />
                <rect x="152" y="464.8" style="fill:#2F0A35;" width="16" height="48" />
                <rect x="48" y="112.8" style="fill:#E75F5C;" width="112" height="16" />
            </g>
            <g>
            </g>
        </g>
    </g>
</svg>