<?xml version="1.0" encoding="utf-8"?>
<!-- Generator: Adobe Illustrator 21.0.2, SVG Export Plug-In . SVG Version: 6.00 Build 0)  -->
<svg version="1.1" id="Layer_1" xmlns="http://www.w3.org/2000/svg" xmlns:xlink="http://www.w3.org/1999/xlink" x="0px" y="0px"
	 viewBox="0 0 491.6 448.7" style="enable-background:new 0 0 491.6 448.7;" xml:space="preserve">
<g>
	<g id="XMLID_1_">
		<g>
			<path style="fill:#2F0A35;" d="M441.9,282.4v-28.5H387H104.3H49.5v28.5H441.9z M482.3,235.6c5,0,9.1,4.1,9.1,9.1
				s-4.1,9.1-9.1,9.1h-22v37.6c0,5-4.1,9.1-9.1,9.1h-23.3v138.7c0,5-4.1,9.1-9.1,9.1h-31.6c-5,0-9.1-4.1-9.1-9.1s4.1-9.1,9.1-9.1
				h22.5V300.5H81.1v129.8h22.6c5,0,9.1,4.1,9.1,9.1s-4.1,9.1-9.1,9.1H72.1c-5,0-9.1-4.1-9.1-9.1V300.6H40.5c-5,0-9.1-4.1-9.1-9.1
				v-37.6h-22c-5,0-9.1-4.1-9.1-9.1s4.1-9.1,9.1-9.1h87.4l10.8-59.4c2.4-13.3,14-23,27.5-23h12.5l6.8-114.5
				c1.3-21.6,19.3-38.6,41-38.6h100.9c21.7,0,39.7,16.9,41,38.6l6.8,114.5h12.5c13.5,0,25.1,9.7,27.5,23l10.7,59.2H482.3z
				 M376.3,235.6l-10.1-55.9c-0.9-4.7-4.9-8.1-9.7-8.1H345l3.8,64H376.3z M340.4,244.8L328.1,39.6c-1-16.9-15-30.1-32-30.1h-46.2
				h-54.7c-16.9,0-31,13.2-32,30.1l-12.2,205.1H340.4z M142.6,235.6l3.8-64h-11.4c-4.8,0-8.9,3.4-9.7,8.1l-10.1,55.9H142.6z"/>
			<path style="fill:#2F0A35;" d="M340.4,322.1c5,0,9.1,4.1,9.1,9.1s-4.1,9.1-9.1,9.1h-85.2v39.8h41.6c5,0,9.1,4.1,9.1,9.1v50
				c0,5-4.1,9.1-9.1,9.1s-9.1-4.1-9.1-9.1v-40.9h-32.6v40.9c0,5-4.1,9.1-9.1,9.1s-9.1-4.1-9.1-9.1v-40.9h-32.6v40.9
				c0,5-4.1,9.1-9.1,9.1s-9.1-4.1-9.1-9.1v-50c0-5,4.1-9.1,9.1-9.1h41.6v-39.8h-85.6c-5,0-9.1-4.1-9.1-9.1s4.1-9.1,9.1-9.1H340.4z"
				/>
			<path style="fill:#2F0A35;" d="M328.1,39.6l12.2,205.1H151.1l12.2-205.1c1-16.9,15.1-30.1,32-30.1h54.7h46.2
				C313.1,9.5,327.1,22.8,328.1,39.6z M330.8,235.8L319,40.1c-0.7-12.1-10.8-21.6-22.9-21.6H195.4c-12.1,0-22.2,9.5-22.9,21.6
				l-11.7,195.6H330.8z"/>
			<path style="fill:#E9605D;" d="M319,40.1l11.7,195.6h-170l11.7-195.6c0.7-12.1,10.8-21.6,22.9-21.6h100.8
				C308.3,18.5,318.4,28,319,40.1z M296,99.3c0-5-4.1-9.1-9.1-9.1h-84.6c-5,0-9.1,4.1-9.1,9.1s4.1,9.1,9.1,9.1H287
				C292,108.4,296,104.3,296,99.3z"/>
			<path style="fill:#2F0A35;" d="M287,90.3c5,0,9.1,4.1,9.1,9.1s-4.1,9.1-9.1,9.1h-84.6c-5,0-9.1-4.1-9.1-9.1s4.1-9.1,9.1-9.1H287z
				"/>
		</g>
		<g>
		</g>
	</g>
</g>
</svg>
