<?xml version="1.0" encoding="utf-8"?>
<!-- Generator: Adobe Illustrator 21.0.2, SVG Export Plug-In . SVG Version: 6.00 Build 0)  -->
<svg version="1.1" id="Layer_1" xmlns="http://www.w3.org/2000/svg" xmlns:xlink="http://www.w3.org/1999/xlink" x="0px" y="0px"
	 viewBox="0 0 512.5 478.3" style="enable-background:new 0 0 512.5 478.3;" xml:space="preserve">
<g>
	<g id="XMLID_1_">
		<g>
			<path style="fill:#FF6C5E;" d="M496.2,444.4v17.1c0,0.3-0.2,0.5-0.5,0.5H16.8c-0.3,0-0.5-0.2-0.5-0.5v-17.1
				c0-0.3,0.2-0.5,0.5-0.5h478.9C496,443.8,496.2,444.1,496.2,444.4z"/>
			<path style="fill:#330C36;" d="M512.3,444.4v17.1c0,9.1-7.4,16.6-16.6,16.6H16.8c-9.1,0-16.6-7.4-16.6-16.6v-17.1
				c0-9.1,7.4-16.6,16.6-16.6H35c-5.7-7.2-9.1-16.3-9.1-26.2v-99.5c0-15.6,10-29.2,25-33.8l60-18.4c2.4-0.7,4-2.9,4-5.4v-22.6
				l-2.9-2.4c-6.6-5.5-10.9-13.1-12.3-21.6l-0.6-3.6h-3.6c-12,0-21.7-9.7-21.7-21.7v-13.7c0-7.3,3.6-13.7,9.2-17.7
				c-0.9-1.8-1.6-3.7-1.9-5.7c-8.6-5.1-14.1-14.3-14.1-24.5c0-4.8,1.2-9.5,3.6-13.7c-2.3-4.2-3.6-8.9-3.6-13.7
				c0-10.1,5.4-19.3,13.8-24.4c-0.1-1-0.2-2-0.2-3c0-14.4,10.7-26.4,24.6-28.3c4.6-7.7,12.6-12.9,21.6-13.8c5.6-4.5,12.6-7,19.9-7
				c1,0,1.9,0,2.9,0.2c6.1-4.5,13.4-7,21-7c7.6,0,14.9,2.5,21,7c1-0.1,2-0.2,2.9-0.2c7.3,0,14.4,2.6,20,7.1c1.3-0.2,2.6-0.3,3.9-0.3
				c10.1,0,19.4,5.4,24.4,13.9c13.9,1.9,24.6,13.9,24.6,28.3c0,1-0.1,2-0.2,3c8.4,5.1,13.8,14.2,13.8,24.4c0,4.8-1.2,9.5-3.6,13.7
				c2.3,4.2,3.6,8.9,3.6,13.7c0,10.2-5.5,19.4-14,24.5c-0.7,3.6-2.3,6.9-4.5,9.7c3.1,3.7,4.9,8.5,4.9,13.7v3.9h210.9
				c18.6,0,33.7,15.1,33.7,33.7v153.9c0,18.6-15.1,33.7-33.7,33.7h-75.8l5.9,43.8h87C504.8,427.8,512.3,435.2,512.3,444.4z
				 M496.2,461.5v-17.1c0-0.3-0.2-0.5-0.5-0.5H16.8c-0.3,0-0.5,0.2-0.5,0.5v17.1c0,0.3,0.2,0.5,0.5,0.5h478.9
				C496,462,496.2,461.8,496.2,461.5z M496.2,350.3V196.4c0-9.7-7.9-17.6-17.6-17.6H222.1c-9.7,0-17.6,7.9-17.6,17.6v153.9
				c0,9.7,7.9,17.6,17.6,17.6h77c0.3,0,0.6,0,0.9,0.1l6.2-46.7c1.7-12.4,12.4-21.8,24.9-21.8h38.5c12.5,0,23.3,9.4,24.9,21.8
				l6.2,46.7c0.3,0,0.6-0.1,0.9-0.1h77C488.3,367.9,496.2,360,496.2,350.3z M392.5,427.8l-13.9-104.4c-0.6-4.5-4.5-7.9-9-7.9h-38.5
				c-4.5,0-8.4,3.4-9,7.9l-13.9,104.4H392.5z M292,427.8l5.8-43.8h-25v43.3c0,0.2,0,0.4,0,0.5H292z M262.1,91.8
				c1.5-1.7,3.3-4.4,3.3-8.3c0-5.6-3.8-10.5-9.3-12c-2.2-0.6-4.1-2.1-5.1-4.2c-1-2-1.1-4.4-0.3-6.6c0.6-1.5,0.9-3.1,0.9-4.7
				c0-6.8-5.4-12.3-12.2-12.5c-0.4,0-0.7,0.1-1,0.1c-3.6,0.2-6.9-2-8.1-5.4c-1.8-5-6.5-8.4-11.7-8.4c-1.2,0-2.4,0.2-3.7,0.6
				c-3,1-6.4,0.2-8.5-2.2c-3.1-3.4-7.3-5.3-11.7-5.3c-1.1,0-2.2,0.1-3.5,0.4c-2.6,0.6-5.3-0.1-7.3-2c-3.6-3.4-8.3-5.3-13.2-5.3
				c-4.9,0-9.6,1.9-13.2,5.3c-1.9,1.8-4.6,2.5-7.2,2c-1.3-0.3-2.4-0.4-3.5-0.4c-4.2,0-8.1,1.6-11.1,4.6c-1.5,1.5-3.6,2.3-5.8,2.3
				c-0.2,0-0.3,0-0.5,0c-5.2,0.1-9.7,3.5-11.5,8.4c-1.2,3.4-4.5,5.6-8,5.4c-0.4,0-0.7-0.1-1-0.1c-6.8,0.2-12.2,5.7-12.2,12.5
				c0,1.6,0.3,3.1,0.9,4.6c0.9,2.1,0.8,4.5-0.3,6.6c-1,2.1-2.9,3.6-5.1,4.2c-5.4,1.5-9.3,6.4-9.3,12c0,3.9,1.8,6.7,3.3,8.3
				c2.7,3.1,2.7,7.7,0,10.7c-1.5,1.7-3.3,4.4-3.3,8.3c0,5.3,3.4,10,8.4,11.7c3.5,1.2,5.7,4.6,5.3,8.3c0,0.3-0.1,0.5-0.1,0.7
				c0.1,2.4,1.8,4.6,4.2,5.2c0.3,0.1,7.9,0.2,7.9,0.2l4.6-27.7c0.7-4.1,4.4-7,8.5-6.7c0.4,0,0.7,0.1,1.1,0.1l0.1,0
				c4.1-0.1,7.9-2.2,10.2-5.6c1.5-2.2,4-3.6,6.7-3.6s5.2,1.3,6.7,3.6c2.3,3.5,6.2,5.6,10.4,5.6c4.2,0,8.1-2.1,10.4-5.6
				c1.5-2.2,4-3.6,6.7-3.6s5.2,1.3,6.7,3.6c2.3,3.5,6.2,5.6,10.4,5.6c4.2,0,8.1-2.1,10.4-5.6c1.5-2.2,4-3.6,6.7-3.6
				c2.7,0,5.2,1.3,6.7,3.6c2.3,3.5,6.1,5.5,10.2,5.6h0c0.4,0,0.7-0.1,1.1-0.1c4.1-0.3,7.8,2.6,8.5,6.7l4.6,27.7c0,0,7.7-0.2,7.9-0.2
				c2.4-0.6,4.1-2.8,4.2-5.2c0-0.2-0.1-0.5-0.1-0.7c-0.3-3.7,1.9-7.1,5.4-8.3c5-1.8,8.4-6.5,8.4-11.7c0-3.9-1.8-6.7-3.3-8.3
				C259.3,99.5,259.3,94.9,262.1,91.8z M213,427.8h43.8c0-0.2,0-0.4,0-0.5V384h-34.7c-18.6,0-33.7-15.1-33.7-33.7v-34
				c-4.7,0.7-9.5,1-14.3,1c-33.7,0-65.4-16.5-84.8-44l-33.6,10.4c-8.2,2.5-13.7,10-13.7,18.5v99.5c0,14.4,11.8,26.2,26.2,26.2h77.5
				v-26.7H93.8c-9.1,0-16.6-7.4-16.6-16.6v-51.3c0-4.4,3.6-8,8-8s8,3.6,8,8v51.3c0,0.3,0.2,0.5,0.5,0.5h85.5
				c18.6,0,33.7,15.1,33.7,33.7V427.8z M251.6,162.7v-3.9c0-2.1-1.1-3.9-2.8-4.9l-1.4,8.8H251.6z M231.2,162.7l1.7-10.7
				c-4.7-1.9-8.2-6.1-9.1-11.3l-3.7-22.3c-4.3-0.8-8.3-2.6-11.8-5.2c-4.9,3.6-10.8,5.7-17.1,5.7c-6.3,0-12.2-2-17.1-5.7
				c-4.9,3.6-10.8,5.7-17.1,5.7c-6.3,0-12.2-2-17.1-5.7c-3.5,2.6-7.5,4.4-11.8,5.2l-3.7,22.3c-1.2,7.2-7.4,12.4-14.7,12.4h-1.1
				l6.7,42.2c0.7,4.6,3.1,8.8,6.7,11.8l27.5,22.9c2.2,1.9,5.1,2.9,8,2.9h26.2c1.6,0,3.1-0.3,4.5-0.9v-35.6
				c0-18.6,15.1-33.7,33.7-33.7H231.2z M196.9,427.8v-9.1c0-9.7-7.9-17.6-17.6-17.6h-17.6v26.7H196.9z M188.4,300.1v-51.6
				c-1.5,0.3-3,0.4-4.6,0.4h-26.2c-6.7,0-13.2-2.4-18.3-6.6l-8.5-7.1v9.3c0,9.6-6.1,17.9-15.3,20.7l-10,3.1
				c16.6,20.8,41.8,33,68.6,33C178.9,301.2,183.7,300.8,188.4,300.1z M96.5,178.1l-3.9-24.2c-1.7,1-2.8,2.8-2.8,4.9v13.7
				c0,3.1,2.5,5.7,5.7,5.7H96.5z"/>
			<path style="fill:#FF6C5E;" d="M496.2,196.4v153.9c0,9.7-7.9,17.6-17.6,17.6h-77c-0.3,0-0.6,0-0.9,0.1l-6.2-46.7
				c-1.6-12.4-12.4-21.8-24.9-21.8h-38.5c-12.5,0-23.2,9.4-24.9,21.8L300,368c-0.3,0-0.6-0.1-0.9-0.1h-77c-9.7,0-17.6-7.9-17.6-17.6
				V196.4c0-9.7,7.9-17.6,17.6-17.6h256.5C488.3,178.8,496.2,186.7,496.2,196.4z M375.4,256.2c0-13.9-11.3-25.1-25.1-25.1
				s-25.1,11.3-25.1,25.1s11.3,25.1,25.1,25.1S375.4,270.1,375.4,256.2z"/>
			<path style="fill:#330C36;" d="M350.3,231.1c13.9,0,25.1,11.3,25.1,25.1s-11.3,25.1-25.1,25.1s-25.1-11.3-25.1-25.1
				S336.5,231.1,350.3,231.1z M359.4,256.2c0-5-4.1-9.1-9.1-9.1s-9.1,4.1-9.1,9.1c0,5,4.1,9.1,9.1,9.1S359.4,261.3,359.4,256.2z"/>
			<path style="fill:#FF6C5E;" d="M350.3,247.2c5,0,9.1,4.1,9.1,9.1c0,5-4.1,9.1-9.1,9.1s-9.1-4.1-9.1-9.1
				C341.2,251.2,345.3,247.2,350.3,247.2z"/>
		</g>
		<g>
		</g>
	</g>
</g>
</svg>
