<?xml version="1.0" encoding="utf-8"?>
<!-- Generator: Adobe Illustrator 21.0.2, SVG Export Plug-In . SVG Version: 6.00 Build 0)  -->
<svg version="1.1" id="Capa_1" xmlns="http://www.w3.org/2000/svg" xmlns:xlink="http://www.w3.org/1999/xlink" x="0px" y="0px"
	 viewBox="0 0 496 496" style="enable-background:new 0 0 496 496;" xml:space="preserve">
<g>
	<g id="XMLID_1_">
		<g>
			<path style="fill:#2D0935;" d="M496,16v16c0,8.8-7.2,16-16,16h-16v272h-48.8c5.4,9.4,8.6,20.2,8.6,31.8v16.4
				c0,13.9-4.6,26.8-12.2,37.3c26.6,11,44.4,37,44.4,66.5v24H264v-24c0-29.4,17.8-55.5,44.4-66.5c-7.6-10.5-12.2-23.4-12.2-37.3
				v-16.4c0-11.6,3.1-22.4,8.6-31.8H191.2c5.4,9.4,8.6,20.2,8.6,31.8v16.4c0,13.9-4.5,26.8-12.2,37.3c26.6,11,44.4,37,44.4,66.5v24
				H40v-24c0-29.4,17.8-55.5,44.4-66.5c-7.6-10.5-12.2-23.4-12.2-37.3v-16.4c0-11.6,3.2-22.4,8.6-31.8H32V48H16C7.2,48,0,40.8,0,32
				V16C0,7.2,7.2,0,16,0h464C488.8,0,496,7.2,496,16z M480,32l0-16H16v16H480z M448,304v-56V96V48h-48H48v256h45.9
				c11.3-9.9,26-16,42.1-16s30.9,6.1,42.1,16h139.8c11.3-9.9,26-16,42.1-16c6.1,0,12.1,0.9,17.7,2.5c3.2,1.7,6.5,3,10.1,3.9
				c5.2,2.5,10,5.8,14.3,9.6H448z M440,480v-8c0-25.1-16.6-46.9-40.6-53.7c-10.9,8.6-24.5,13.7-39.4,13.7s-28.6-5.2-39.4-13.7
				c-23.9,6.8-40.6,28.7-40.6,53.7v8H440z M407.8,368.2v-16.4c0-26.4-21.4-47.8-47.8-47.8s-47.8,21.4-47.8,47.8v16.4
				c0,26.4,21.4,47.8,47.8,47.8S407.8,394.6,407.8,368.2z M216,480v-8c0-25.1-16.6-46.9-40.6-53.7c-10.9,8.6-24.5,13.7-39.4,13.7
				s-28.6-5.2-39.4-13.7C72.6,425.1,56,446.9,56,472v8H216z M183.8,368.2v-16.4c0-26.4-21.4-47.8-47.8-47.8s-47.8,21.4-47.8,47.8
				v16.4c0,26.4,21.4,47.8,47.8,47.8S183.8,394.6,183.8,368.2z"/>
			<path style="fill:#E75E5B;" d="M400,48c26.5,0,48,21.5,48,48s-21.5,48-48,48c-12.6,0-24.1-4.9-32.6-12.8l13.1-10.1
				c5.4,4.2,12.2,6.9,19.6,6.9c17.6,0,32-14.3,32-32s-14.4-32-32-32s-32,14.3-32,32c0,4.5,0.9,8.7,2.6,12.5l-13,10
				c-3.6-6.7-5.6-14.4-5.6-22.5C352,69.5,373.5,48,400,48z"/>
			<path style="fill:#E75E5B;" d="M400,200c26.5,0,48,21.5,48,48s-21.5,48-48,48c-4.2,0-8.3-0.5-12.2-1.6c-3.2-1.6-6.6-2.9-10.1-3.9
				c-15.3-8-25.7-24.1-25.7-42.5c0-7.3,1.6-14.2,4.5-20.4l13.5,9.4c-1.3,3.4-2.1,7.1-2.1,11c0,17.6,14.4,32,32,32s32-14.4,32-32
				s-14.4-32-32-32c-8,0-15.2,3-20.8,7.9l-13.6-9.4C374.4,205.6,386.5,200,400,200z"/>
			<path style="fill:#2D0935;" d="M400,64c17.6,0,32,14.3,32,32s-14.4,32-32,32c-7.4,0-14.1-2.6-19.6-6.9l-13.1,10.1
				c-3.9-3.6-7.2-7.9-9.8-12.7l13-10c-1.7-3.8-2.6-8.1-2.6-12.5C368,78.3,382.4,64,400,64z M416,96c0-8.8-7.2-16-16-16
				s-16,7.2-16,16s7.2,16,16,16S416,104.8,416,96z"/>
			<path style="fill:#2D0935;" d="M400,216c17.6,0,32,14.4,32,32s-14.4,32-32,32s-32-14.4-32-32c0-3.9,0.8-7.6,2.1-11l-13.5-9.4
				c2.3-4.9,5.4-9.3,9.1-13.2l13.6,9.4C384.8,219,392,216,400,216z M416,248c0-8.8-7.2-16-16-16s-16,7.2-16,16s7.2,16,16,16
				S416,256.8,416,248z"/>
			<path style="fill:#E75E5B;" d="M400,80c8.8,0,16,7.2,16,16s-7.2,16-16,16s-16-7.2-16-16S391.2,80,400,80z"/>
			<path style="fill:#E75E5B;" d="M400,232c8.8,0,16,7.2,16,16s-7.2,16-16,16s-16-7.2-16-16S391.2,232,400,232z"/>
			<path style="fill:#333333;" d="M377.7,290.5c3.5,1,6.8,2.3,10.1,3.9C384.3,293.5,380.9,292.2,377.7,290.5z"/>
			<path style="fill:#2D0935;" d="M367.4,131.2l-9.9,7.6c6.6,10.9,10.5,23.6,10.5,37.2c0,12.3-3.1,24-8.6,34.1l6.3,4.3
				c-3.7,3.8-6.8,8.3-9.1,13.2l-6.3-4.4C337,238.4,317.6,248,296,248c-39.7,0-72-32.3-72-72s32.3-72,72-72
				c20.3,0,38.7,8.5,51.8,22.1l9.8-7.6C360.1,123.3,363.5,127.6,367.4,131.2z M337.6,213.4c8.9-9.9,14.4-23,14.4-37.4
				c0-28.1-20.9-51.5-48-55.4v52.5L337.6,213.4z M325.3,223.6l-33-39.6h-51.6c3.9,27.1,27.2,48,55.4,48
				C306.7,232,316.8,228.9,325.3,223.6z M288,168v-47.4c-24.5,3.5-43.8,22.9-47.4,47.4H288z"/>
			<path style="fill:#E75E5B;" d="M208,64v208H64V64H208z M176,240v-16h-16v16H176z M176,208v-16H96v16H176z M176,176v-16H96v16H176
				z M176,144v-16H96v16H176z M176,112V96h-48v16H176z M144,240v-16H96v16H144z M112,112V96H96v16H112z"/>
			<rect x="160" y="224" style="fill:#2D0935;" width="16" height="16"/>
			<rect x="96" y="192" style="fill:#2D0935;" width="80" height="16"/>
			<rect x="96" y="160" style="fill:#2D0935;" width="80" height="16"/>
			<rect x="96" y="128" style="fill:#2D0935;" width="80" height="16"/>
			<rect x="128" y="96" style="fill:#2D0935;" width="48" height="16"/>
			<rect x="96" y="224" style="fill:#2D0935;" width="48" height="16"/>
			<rect x="96" y="96" style="fill:#2D0935;" width="16" height="16"/>
		</g>
		<g>
		</g>
	</g>
</g>
</svg>
