<?xml version="1.0" encoding="utf-8"?>
<!-- Generator: Adobe Illustrator 21.0.2, SVG Export Plug-In . SVG Version: 6.00 Build 0)  -->
<svg version="1.1" id="Capa_1" xmlns="http://www.w3.org/2000/svg" xmlns:xlink="http://www.w3.org/1999/xlink" x="0px" y="0px"
	 viewBox="0 0 496 496" style="enable-background:new 0 0 496 496;" xml:space="preserve">
<g>
	<g id="XMLID_1_">
		<g>
			<path style="fill:#2F0A35;" d="M496,176v320H256V252.7l76.7-76.7H496z M480,480V192H344v72h-72v216H480z M328,248v-44.7
				L283.3,248H328z"/>
			<path style="fill:#2F0A35;" d="M464,0c17.6,0,32,14.4,32,32s-14.4,32-32,32c-6.1,0-11.7-1.8-16.6-4.8l-59.7,53.1
				c2.6,4.6,4.3,10,4.3,15.7c0,17.6-14.4,32-32,32s-32-14.4-32-32c0-8.2,3.1-15.5,8.2-21.2l-33.3-46.7c-4.5,2.4-9.5,3.8-14.9,3.8
				c-8.1,0-15.5-3.1-21.1-8.1l-5.9,4.5c16.9,23.6,27,52.4,27,83.6c0,62.6-40.2,115.8-96,135.6V304h16v16h-16v16h16v16h-16v96
				c0,26.5-21.5,48-48,48s-48-21.5-48-48v-96H80v-16h16v-16H80v-16h16v-24.4C40.2,259.8,0,206.6,0,144C0,64.6,64.6,0,144,0
				c42.5,0,80.6,18.6,107,47.9l7-5.4c-1.2-3.3-1.9-6.9-1.9-10.6c0-17.6,14.4-32,32-32s32,14.4,32,32c0,6.4-1.9,12.4-5.2,17.4
				l34.7,48.5c3.3-1.2,6.8-1.9,10.5-1.9c6.1,0,11.7,1.8,16.6,4.8l59.7-53.1c-2.6-4.7-4.3-10-4.3-15.7C432,14.4,446.4,0,464,0z
				 M480,32c0-8.8-7.2-16-16-16s-16,7.2-16,16s7.2,16,16,16S480,40.8,480,32z M376,128c0-8.8-7.2-16-16-16s-16,7.2-16,16
				s7.2,16,16,16S376,136.8,376,128z M304,32c0-8.8-7.2-16-16-16s-16,7.2-16,16s7.2,16,16,16S304,40.8,304,32z M272,144
				c0-27.5-8.8-53-23.6-73.9L223,89.6c10.7,15.5,17,34.2,17,54.4c0,52.9-43.1,96-96,96s-96-43.1-96-96s43.1-96,96-96
				c27,0,51.4,11.3,68.9,29.3l25.4-19.6C214.9,32.2,181.3,16,144,16C73.4,16,16,73.4,16,144s57.4,128,128,128S272,214.6,272,144z
				 M224,144c0-16.5-5-31.9-13.6-44.7l-25.4,19.6c-2.8-4.6-6.4-8.7-10.5-12.1l25.7-19.8C185.7,72.8,165.8,64,144,64
				c-44.1,0-80,35.9-80,80s35.9,80,80,80S224,188.1,224,144z M176,448v-96h-64v96c0,17.6,14.3,32,32,32S176,465.6,176,448z M176,336
				v-16h-64v16H176z M176,304v-19.7c-10.3,2.4-21,3.7-32,3.7s-21.7-1.4-32-3.7V304H176z"/>
			<rect x="288" y="368" style="fill:#E75F5C;" width="176" height="96"/>
			<rect x="448" y="336" style="fill:#2F0A35;" width="16" height="16"/>
			<rect x="288" y="304" style="fill:#2F0A35;" width="176" height="16"/>
			<rect x="360" y="272" style="fill:#2F0A35;" width="104" height="16"/>
			<rect x="360" y="240" style="fill:#2F0A35;" width="104" height="16"/>
			<rect x="392" y="208" style="fill:#2F0A35;" width="72" height="16"/>
			<rect x="288" y="336" style="fill:#2F0A35;" width="144" height="16"/>
			<rect x="360" y="208" style="fill:#2F0A35;" width="16" height="16"/>
			<path style="fill:#E75F5C;" d="M184.9,118.9c4.5,7.3,7.1,15.9,7.1,25.1c0,26.5-21.5,48-48,48s-48-21.5-48-48s21.5-48,48-48
				c11.5,0,22.1,4.1,30.4,10.8l-13.3,10.2c-5-3.2-10.8-5.1-17.1-5.1c-17.7,0-32,14.3-32,32s14.3,32,32,32s32-14.4,32-32
				c0-5.5-1.5-10.6-4-15.1L184.9,118.9z"/>
			<path style="fill:#2F0A35;" d="M184.9,118.9l-12.9,9.9c2.5,4.5,4,9.6,4,15.1c0,17.6-14.4,32-32,32s-32-14.4-32-32s14.3-32,32-32
				c6.3,0,12.1,1.9,17.1,5.1l13.3-10.2C178.5,110.2,182.1,114.3,184.9,118.9z M160,144c0-8.8-7.2-16-16-16s-16,7.2-16,16
				s7.2,16,16,16S160,152.8,160,144z"/>
			<path style="fill:#E75F5C;" d="M144,128c8.8,0,16,7.2,16,16s-7.2,16-16,16s-16-7.2-16-16S135.2,128,144,128z"/>
		</g>
		<g>
		</g>
	</g>
</g>
</svg>
