<?xml version="1.0" encoding="utf-8"?>
<!-- Generator: Adobe Illustrator 21.0.2, SVG Export Plug-In . SVG Version: 6.00 Build 0)  -->
<svg version="1.1" id="Layer_1" xmlns="http://www.w3.org/2000/svg" xmlns:xlink="http://www.w3.org/1999/xlink" x="0px" y="0px" viewBox="0 0 411.2 512" style="enable-background:new 0 0 411.2 512;" xml:space="preserve" width="46px" height="56px">
    <g>
        <g>
            <g>
                <path style="fill:#FF6C5E;" d="M205.6,138.6c-11.2,0-20.4,9.1-20.4,20.4s9.1,20.4,20.4,20.4c11.2,0,20.4-9.1,20.4-20.4
				S216.8,138.6,205.6,138.6z M205.6,164.1c-2.9,0-5.2-2.3-5.2-5.2s2.3-5.2,5.2-5.2s5.2,2.3,5.2,5.2S208.4,164.1,205.6,164.1z" />
                <path style="fill:#FF6C5E;" d="M360.3,453.5h-86.6v-18.2c0-6.7-1-13.1-2.8-19.2c33-15.8,59.6-43.4,74.1-77h66.1v-48.3H219.8v48.3
				H270c-16.5,17.7-39.7,28-64.4,28c-48.6,0-88.2-39.5-88.2-88.2c0-38,24.7-71.9,60.5-83.7c7.7,5.9,17.3,9.4,27.7,9.4
				c7.8,0,15.2-2,21.7-5.5l40.5,40.6l8.5-8.5l20.4,20.4c3.5,3.4,8,5.3,12.9,5.3s9.5-1.9,12.9-5.3l26.5-26.5c7.1-7.1,7.1-18.7,0-25.8
				l-20.4-20.4l8.5-8.5L217.4,50.9c-5.5-5.5-12.7-8.5-20.5-8.5c-5.6,0-10.9,1.6-15.5,4.5l-9.2-9.2l1.3-1.3c8.3-8.3,8.3-21.9,0-30.2
				c-4-4-9.4-6.2-15.1-6.2s-11.1,2.2-15.1,6.2l-39.9,39.9c-4,4-6.2,9.4-6.2,15.1s2.2,11.1,6.2,15.1c4,4,9.4,6.3,15.1,6.3
				s11.1-2.2,15.1-6.2l1.3-1.3l9.2,9.2c-7.1,11.2-5.8,26.2,4,36l13.4,13.4c-29,8.8-55,26.2-74.2,50c-21.8,26.9-33.7,60.8-33.7,95.5
				c0,58.9,33.7,112,86.5,137.1c-1.8,6.1-2.8,12.5-2.8,19.2v18.2H50.9c-28,0-50.9,22.8-50.9,50.9v7.6h97.1v-15.2H16
				c3.5-16,17.8-28,34.8-28h86.6h136.3h86.6c17.1,0,31.3,12,34.8,28H117.4V512h293.8v-7.6C411.2,476.4,388.3,453.5,360.3,453.5z
				 M235,323.9V306h160.9v17.9h-44.8h-69.6H235z M236,160.6c0,0.2,0,0.5-0.1,0.7c0,0.3,0,0.6-0.1,0.9c0,0.3-0.1,0.7-0.1,1
				c0,0.2,0,0.4-0.1,0.5c-0.1,0.4-0.1,0.8-0.2,1.2c0,0.1,0,0.1,0,0.2c-2.9,13.8-15.2,24.3-29.9,24.3c-8.3,0-15.9-3.4-21.4-8.8
				c-0.1-0.1-0.2-0.2-0.2-0.2c-0.3-0.3-0.6-0.6-0.9-0.9c0,0-0.1-0.1-0.1-0.1c-4.9-5.4-7.9-12.6-7.9-20.4c0-0.7,0-1.3,0.1-2
				c0-0.2,0-0.3,0-0.5c0-0.6,0.1-1.1,0.2-1.7c0-0.1,0-0.2,0-0.3c0.1-0.6,0.2-1.3,0.4-1.9c0-0.1,0.1-0.3,0.1-0.4
				c0.1-0.5,0.3-1.1,0.4-1.6c0-0.1,0.1-0.3,0.1-0.4c0.2-0.6,0.4-1.2,0.6-1.8c0-0.1,0.1-0.2,0.1-0.3c0.2-0.5,0.4-1,0.6-1.5
				c0.1-0.2,0.1-0.3,0.2-0.5c0.3-0.6,0.5-1.1,0.8-1.7c0.1-0.1,0.1-0.2,0.2-0.3c0.3-0.4,0.5-0.9,0.8-1.3c4.3-6.9,11.3-11.9,19.5-13.6
				c0.1,0,0.1,0,0.2,0c0.4-0.1,0.8-0.2,1.2-0.2c0.2,0,0.4-0.1,0.5-0.1c0.3,0,0.7-0.1,1-0.1c0.3,0,0.6-0.1,0.9-0.1
				c0.2,0,0.5,0,0.7-0.1c0.6,0,1.1,0,1.7,0c16.8,0,30.5,13.7,30.5,30.5C236.1,159.5,236.1,160.1,236,160.6z M338.3,210.1
				c1.2,1.2,1.2,3.1,0,4.3L311.8,241c-0.8,0.8-1.7,0.9-2.2,0.9s-1.4-0.1-2.2-0.9L287,220.5l30.8-30.8L338.3,210.1z M123,65.5
				c-1.2,1.2-2.7,1.8-4.3,1.8s-3.2-0.6-4.3-1.8c-1.2-1.2-1.8-2.7-1.8-4.3c0-1.6,0.6-3.2,1.8-4.3L154.2,17c1.2-1.2,2.7-1.8,4.3-1.8
				s3.2,0.6,4.3,1.8c2.4,2.4,2.4,6.3,0,8.7L123,65.5z M145.8,64.2l15.8-15.8l8.7,8.7l-7.9,7.9l-7.9,7.9L145.8,64.2z M158.9,109.3
				c-5.3-5.4-5.3-14.1,0-19.4l28.3-28.3c2.6-2.6,6-4,9.7-4c3.7,0,7.1,1.4,9.7,4l108.9,108.9l-47.7,47.7l-28.5-28.5
				c0.5-0.6,1-1.1,1.5-1.7c0.1-0.1,0.2-0.3,0.3-0.4c0.3-0.4,0.6-0.8,0.9-1.2c4.6-6,7.7-13.2,8.8-21.1c0-0.1,0-0.1,0-0.2
				c0.1-0.6,0.2-1.2,0.2-1.9c0-0.3,0-0.5,0.1-0.8c0-0.5,0.1-0.9,0.1-1.4c0-0.7,0.1-1.5,0.1-2.2c0-25.2-20.5-45.7-45.7-45.7
				c-0.7,0-1.5,0-2.2,0.1c-0.5,0-0.9,0.1-1.4,0.1c-0.3,0-0.5,0-0.8,0.1c-0.6,0.1-1.3,0.1-1.9,0.2c-0.1,0-0.1,0-0.2,0
				c-7.8,1.1-15.1,4.2-21.1,8.8c-0.3,0.3-0.7,0.5-1,0.8c-0.2,0.2-0.4,0.3-0.6,0.5c-0.6,0.5-1.2,1-1.7,1.5L158.9,109.3z M68.9,279
				c0-31.2,10.8-61.7,30.4-85.9c16.1-19.9,37.6-34.9,61.6-43.3c-0.2,0.7-0.3,1.5-0.4,2.3c0,0,0,0.1,0,0.1c-0.1,0.7-0.2,1.4-0.3,2.1
				c0,0.2,0,0.5-0.1,0.7c0,0.5-0.1,1.1-0.1,1.6c0,0.8-0.1,1.5-0.1,2.3c0,0.7,0,1.4,0.1,2c0,0.2,0,0.5,0,0.7c0,0.4,0.1,0.9,0.1,1.3
				c0,0.5,0.1,1,0.2,1.5c0,0.3,0.1,0.6,0.1,0.8c0.1,0.5,0.1,0.9,0.2,1.4c0,0.1,0,0.2,0.1,0.3c0.9,5.2,2.8,10.1,5.3,14.5
				c0.1,0.1,0.1,0.2,0.2,0.3c0.2,0.4,0.4,0.7,0.6,1.1c0,0,0,0.1,0.1,0.1c-38.5,15.6-64.6,53.5-64.6,95.9c0,44.9,28.8,83.3,68.9,97.5
				c-10.4,6.1-19.1,14.8-25.1,25.6C98.9,379.3,68.9,331.8,68.9,279z M258.5,453.5H152.6v-18.2c0-25.5,18.1-46.8,42.1-51.8
				c0.1,0,0.2,0,0.3-0.1c1.6-0.3,3.3-0.6,4.9-0.8c0.2,0,0.4,0,0.6-0.1c0.6-0.1,1.3-0.1,1.9-0.1c0.2,0,0.5,0,0.7,0
				c0.8,0,1.6-0.1,2.4-0.1c0.8,0,1.6,0,2.4,0.1c0.2,0,0.5,0,0.7,0c0.6,0,1.3,0.1,1.9,0.1c0.2,0,0.4,0,0.6,0.1
				c1.7,0.2,3.3,0.4,4.9,0.8c0.1,0,0.2,0,0.3,0.1c24,5,42.1,26.3,42.1,51.8V453.5z M240.1,376.5c19.7-7,37.1-19.9,49.6-37.3h38.7
				c-13.4,27.3-35.8,49.6-63.3,62.9C259.1,391.3,250.4,382.5,240.1,376.5z" />
                <path style="fill:#FF6C5E;" d="M205.6,397.6v15.2c11,0,20.6,8.2,22.3,19.1l15-2.3C240.1,411.3,224.1,397.6,205.6,397.6z" />
            </g>
        </g>
    </g>
</svg>