<?xml version="1.0" encoding="utf-8"?>
<!-- Generator: Adobe Illustrator 21.0.2, SVG Export Plug-In . SVG Version: 6.00 Build 0)  -->
<svg version="1.1" id="Capa_1" xmlns="http://www.w3.org/2000/svg" xmlns:xlink="http://www.w3.org/1999/xlink" x="0px" y="0px" viewBox="0 0 512 512" style="enable-background:new 0 0 512 512;" xml:space="preserve" width="21px" height="21px">
    <g>
        <g id="XMLID_1_">
            <g>
                <path style="fill:#FF6C5E;" d="M494.4,88.3v88.3H380c-0.1,0-0.2-0.1-0.3-0.1c-0.1,0-0.2,0.1-0.3,0.1h-123c-0.1,0-0.2-0.1-0.3-0.1
				c-0.1,0-0.2,0.1-0.3,0.1h-123c-0.1,0-0.2-0.1-0.3-0.1c-0.1,0-0.2,0.1-0.3,0.1H17.7V88.3c0-9.7,7.9-17.6,17.7-17.6H97v17.7
				c0,19.5,15.8,35.3,35.3,35.3s35.3-15.8,35.3-35.3V70.6h176.7v17.7c0,19.5,15.8,35.3,35.3,35.3S415,107.8,415,88.3V70.6h61.7
				C486.4,70.6,494.4,78.5,494.4,88.3z" />
                <path style="fill:#330C36;" d="M512,88.3v388.4c0,19.5-15.8,35.3-35.3,35.3H35.3C15.8,512,0,496.2,0,476.7V88.3
				C0,68.8,15.8,53,35.3,53H97V35.3C97,15.8,112.9,0,132.3,0s35.3,15.8,35.3,35.3V53h176.7V35.3c0-19.5,15.9-35.3,35.3-35.3
				C399.1,0,415,15.8,415,35.3V53h61.7C496.2,53,512,68.8,512,88.3z M494.4,476.7v-70.4H388.5v88.1h88.2
				C486.4,494.3,494.4,486.4,494.4,476.7z M494.4,388.6v-88.3H388.5v88.3H494.4z M494.4,282.6v-88.3H388.5v88.3H494.4z M494.4,176.6
				V88.3c0-9.7-7.9-17.6-17.7-17.6H415v17.7c0,19.5-15.8,35.3-35.3,35.3s-35.3-15.8-35.3-35.3V70.6H167.6v17.7
				c0,19.5-15.8,35.3-35.3,35.3S97,107.8,97,88.3V70.6H35.3c-9.7,0-17.7,7.9-17.7,17.6v88.3H132c0.1,0,0.2-0.1,0.3-0.1
				c0.1,0,0.2,0.1,0.3,0.1h123c0.1,0,0.2-0.1,0.3-0.1c0.1,0,0.2,0.1,0.3,0.1h123c0.1,0,0.2-0.1,0.3-0.1c0.1,0,0.2,0.1,0.3,0.1H494.4
				z M397.3,88.3v-53c0-9.7-7.9-17.7-17.7-17.7c-9.7,0-17.6,7.9-17.6,17.7v26.4c0,0,0,0,0,0c0,0,0,0,0,0v26.4
				c0,9.7,7.9,17.7,17.6,17.7C389.4,105.9,397.3,98,397.3,88.3z M370.8,494.3v-88.1h-106v88.1H370.8z M370.8,388.6v-88.3h-106v88.3
				H370.8z M370.8,282.6v-88.3h-106v88.3H370.8z M247.2,494.3v-88.1h-106v88.1H247.2z M247.2,388.6v-88.3h-106v88.3H247.2z
				 M247.2,282.6v-88.3h-106v88.3H247.2z M150,88.3V61.8c0,0,0,0,0,0c0,0,0,0,0,0V35.3c0-9.7-7.9-17.7-17.7-17.7
				c-9.7,0-17.7,7.9-17.7,17.7v53c0,9.7,7.9,17.7,17.7,17.7C142.1,105.9,150,98,150,88.3z M123.5,494.3v-88.1H17.6v70.4
				c0,9.7,7.9,17.6,17.7,17.6H123.5z M123.5,388.6v-88.3H17.7v88.3H123.5z M123.5,282.6v-88.3H17.7v88.3H123.5z" />
                <path style="fill:#FFFFFF;" d="M397.3,35.3v53c0,9.7-7.9,17.7-17.7,17.7c-9.7,0-17.6-7.9-17.6-17.7V61.8c0,0,0,0,0,0c0,0,0,0,0,0
				V35.3c0-9.7,7.9-17.7,17.6-17.7C389.4,17.7,397.3,25.6,397.3,35.3z" />
                <path style="fill:#330C36;" d="M317.8,415c19.5,0,35.3,15.8,35.3,35.3s-15.8,35.3-35.3,35.3s-35.3-15.8-35.3-35.3
				S298.4,415,317.8,415z M335.5,450.3c0-9.7-7.9-17.7-17.7-17.7c-9.7,0-17.6,7.9-17.6,17.7c0,9.7,7.9,17.7,17.6,17.7
				C327.6,468,335.5,460.1,335.5,450.3z" />
                <path style="fill:#FF6C5E;" d="M317.8,432.7c9.7,0,17.7,7.9,17.7,17.7c0,9.7-7.9,17.7-17.7,17.7c-9.7,0-17.6-7.9-17.6-17.7
				C300.2,440.6,308.1,432.7,317.8,432.7z" />
                <path style="fill:#FFFFFF;" d="M150,61.8v26.4c0,9.7-7.9,17.7-17.7,17.7c-9.7,0-17.7-7.9-17.7-17.7v-53c0-9.7,7.9-17.7,17.7-17.7
				c9.7,0,17.7,7.9,17.7,17.7V61.8C150,61.8,150,61.8,150,61.8C150,61.8,150,61.8,150,61.8z" />
            </g>
            <g>
            </g>
        </g>
    </g>
</svg>